<svg width="56" height="40" viewBox="0 0 56 40" fill="none" xmlns="http://www.w3.org/2000/svg">
<rect width="56" height="40" rx="12" fill="#2E75FF"/>
<path d="M26.75 9C24.6878 9 23 10.6877 23 12.75C23 13.1881 23.0801 13.6081 23.2198 14H21.25C20.8365 14 20.5 13.6635 20.5 13.25C20.5 12.8365 20.8365 12.5 21.25 12.5H22.0127C22.0402 11.9725 22.1509 11.468 22.3369 11H21.25C20.0653 11 19.1019 11.9236 19.0166 13.0869C19.0052 13.1405 18.9996 13.1952 19 13.25V14.75V26.75C19 27.9838 20.0163 29 21.25 29H34.75C35.9838 29 37 27.9838 37 26.75V16.25C37 15.0867 36.0935 14.1274 34.9561 14.0205C34.982 13.8502 35 13.6771 35 13.5C35 11.5758 33.4242 10 31.5 10C30.8548 10 30.2511 10.1802 29.7305 10.4883C29.0443 9.58602 27.9647 9 26.75 9ZM26.75 10.5C27.5394 10.5 28.2228 10.9059 28.624 11.5137C28.2314 12.0792 28 12.7637 28 13.5C28 13.6699 28.0162 13.8363 28.0401 14H24.8897C24.6464 13.6418 24.5 13.2175 24.5 12.75C24.5 11.4983 25.4983 10.5 26.75 10.5ZM31.5 11.5C32.6138 11.5 33.5 12.3862 33.5 13.5C33.5 13.6736 33.4766 13.8403 33.4346 14H29.5655C29.5235 13.8403 29.5 13.6736 29.5 13.5C29.5 12.3862 30.3862 11.5 31.5 11.5ZM20.5 15.5H34.75C35.1733 15.5 35.5 15.8268 35.5 16.25V26.75C35.5 27.1733 35.1733 27.5 34.75 27.5H21.25C20.8268 27.5 20.5 27.1733 20.5 26.75V15.5ZM32.75 20C32.4185 20 32.1006 20.1317 31.8661 20.3661C31.6317 20.6005 31.5 20.9185 31.5 21.25C31.5 21.5815 31.6317 21.8995 31.8661 22.1339C32.1006 22.3683 32.4185 22.5 32.75 22.5C33.0815 22.5 33.3995 22.3683 33.6339 22.1339C33.8683 21.8995 34 21.5815 34 21.25C34 20.9185 33.8683 20.6005 33.6339 20.3661C33.3995 20.1317 33.0815 20 32.75 20Z" fill="white"/>
</svg>
