<svg width="13" height="13" viewBox="0 0 13 13" fill="none" xmlns="http://www.w3.org/2000/svg">
<path fill-rule="evenodd" clip-rule="evenodd" d="M12.166 6.5C12.166 9.81371 9.47972 12.5 6.16602 12.5C2.85231 12.5 0.166016 9.81371 0.166016 6.5C0.166016 3.18629 2.85231 0.5 6.16602 0.5C9.47972 0.5 12.166 3.18629 12.166 6.5ZM6.76602 4.05781C6.76602 4.38918 6.49739 4.65781 6.16602 4.65781C5.83464 4.65781 5.56602 4.38918 5.56602 4.05781C5.56602 3.72644 5.83464 3.45781 6.16602 3.45781C6.49739 3.45781 6.76602 3.72644 6.76602 4.05781ZM6.16602 5.25781C5.83464 5.25781 5.56602 5.52644 5.56602 5.85781V8.85781C5.56602 9.18918 5.83464 9.45781 6.16602 9.45781C6.49739 9.45781 6.76602 9.18918 6.76602 8.85781V5.85781C6.76602 5.52644 6.49739 5.25781 6.16602 5.25781Z" fill="white"/>
</svg>
