<svg width="16" height="16" viewBox="0 0 16 16" fill="none" xmlns="http://www.w3.org/2000/svg">
<path fill-rule="evenodd" clip-rule="evenodd" d="M4.5615 10.4952C4.30115 10.7555 4.30115 11.1776 4.5615 11.438C4.82185 11.6983 5.24396 11.6983 5.5043 11.438L10.9659 5.97637L10.9659 10.0237C10.9659 10.3919 11.2644 10.6904 11.6326 10.6904C12.0008 10.6904 12.2992 10.3919 12.2992 10.0237L12.2992 4.36689C12.2992 4.19008 12.229 4.02051 12.104 3.89549C11.9789 3.77046 11.8094 3.70023 11.6326 3.70023L5.97571 3.70023C5.60752 3.70023 5.30904 3.9987 5.30904 4.36689C5.30904 4.73508 5.60752 5.03356 5.97571 5.03356L10.0231 5.03356L4.5615 10.4952Z" fill="white"/>
</svg>
