<svg width="36" height="36" viewBox="0 0 36 36" fill="none" xmlns="http://www.w3.org/2000/svg">
<rect x="1" y="1" width="34" height="34" rx="17" fill="#334155"/>
<path fill-rule="evenodd" clip-rule="evenodd" d="M19 10.5C19 9.94772 18.5523 9.5 18 9.5C17.4477 9.5 17 9.94772 17 10.5V22.0858L12.7071 17.7929C12.3166 17.4024 11.6834 17.4024 11.2929 17.7929C10.9024 18.1834 10.9024 18.8166 11.2929 19.2071L17.2929 25.2071C17.4804 25.3946 17.7348 25.5 18 25.5C18.2652 25.5 18.5196 25.3946 18.7071 25.2071L24.7071 19.2071C25.0976 18.8166 25.0976 18.1834 24.7071 17.7929C24.3166 17.4024 23.6834 17.4024 23.2929 17.7929L19 22.0858V10.5Z" fill="white"/>
<rect x="1" y="1" width="34" height="34" rx="17" stroke="#1B2B45" stroke-width="2"/>
</svg>
