<svg width="24" height="24" viewBox="0 0 24 24" fill="none" xmlns="http://www.w3.org/2000/svg">
<path d="M9.66602 2L9.21484 4.47656L9.22852 4.4707L9.35742 4.42969C9.30712 4.44226 9.26396 4.46265 9.21484 4.47656C8.29702 4.73658 7.57632 5.21797 6.95898 5.73242L6.92578 5.76172H6.92383L4.53516 5.00391L2.23828 8.98633L4.11133 10.748L4.11914 10.7031L4.12891 10.6582C3.99086 11.2104 4 11.7 4 12C4 12.3 3.99903 12.7959 4.11914 13.3965L4.10742 13.332L2.22461 14.9922L4.55273 19.0273L6.94336 18.1582L6.96289 18.1777L7.04492 18.2324C7.68759 18.6609 8.43308 19.0882 9.20703 19.4199L9.21094 19.4219L9.6582 22H14.334L14.7852 19.5234L14.7715 19.5293L14.6426 19.5703C14.6929 19.5577 14.736 19.5374 14.7852 19.5234C15.703 19.2634 16.4237 18.782 17.041 18.2676L17.0742 18.2383H17.0762L19.4766 19.002L21.7656 14.8828L19.8926 13.2305L19.8809 13.2969L19.8711 13.3418C20.0091 12.7896 20 12.3 20 12C20 11.7 20.0091 11.2104 19.8711 10.6582L19.877 10.6836L21.7754 9.00781L19.4473 4.97266L17.0566 5.8418L17.0371 5.82227L16.9551 5.76758C16.3124 5.33913 15.5669 4.91177 14.793 4.58008L14.7891 4.57812L14.3418 2H9.66602ZM11.334 4H12.6582L13.0098 6.02148L14.0293 6.42773L14.0059 6.41992C14.6113 6.6794 15.24 7.03912 15.7852 7.39844L16.543 8.1582L18.5527 7.42578L19.2246 8.5918L17.7227 9.91797L17.9199 11.1035L17.9297 11.1426C17.9916 11.3904 18 11.7 18 12C18 12.3 17.9916 12.6096 17.9297 12.8574L17.9238 12.8809L17.707 13.9688L19.2344 15.3184L18.5234 16.5996L16.5234 15.9629L15.7461 16.7402C15.203 17.1914 14.7627 17.4778 14.1582 17.6289L14.0918 17.6465L13.0156 18.0762L12.666 20H11.3418L10.9902 17.9785L9.9707 17.5723L9.99414 17.5801C9.38868 17.3206 8.75998 16.9609 8.21484 16.6016L7.45703 15.8418L5.44727 16.5742L4.77539 15.4082L6.29297 14.0684L6.08008 13.0039C6.00019 12.6045 6 12.3 6 12C6 11.7 6.00836 11.3904 6.07031 11.1426L6.07617 11.1191L6.28906 10.0527L4.76172 8.61328L5.46484 7.39648L7.47656 8.03711L8.25391 7.25977C8.79702 6.80857 9.23725 6.52223 9.8418 6.37109L9.9082 6.35352L10.9844 5.92383L11.334 4ZM12 8C9.7902 8 8 9.7902 8 12C8 14.2098 9.7902 16 12 16C14.2098 16 16 14.2098 16 12C16 9.7902 14.2098 8 12 8ZM12 10C13.1902 10 14 10.8098 14 12C14 13.1902 13.1902 14 12 14C10.8098 14 10 13.1902 10 12C10 10.8098 10.8098 10 12 10Z" fill="white" fill-opacity="0.6"/>
</svg>
