<svg width="24" height="24" viewBox="0 0 24 24" fill="none" xmlns="http://www.w3.org/2000/svg">
<path d="M20.8244 5.68918L22.5 4.09824V3.75H16.6952L12.5582 13.9696L7.85162 3.75H1.76513V4.09824L3.7225 6.43689C3.91325 6.60971 4.013 6.86242 3.98762 7.11687V16.3074C4.048 16.6382 3.9395 16.9787 3.705 17.2192L1.5 19.8714V20.2153H7.75187V19.867L5.54688 17.2192C5.308 16.9778 5.19512 16.6434 5.24325 16.3074V8.35784L10.7312 20.2196H11.3691L16.088 8.35784V17.8071C16.088 18.0564 16.088 18.1076 15.9235 18.2709L14.226 19.9009V20.25H22.4615V19.9018L20.8253 18.3117C20.6818 18.204 20.6074 18.0234 20.638 17.8479V6.15292C20.6074 5.97663 20.6809 5.796 20.8244 5.68918Z" fill="white"/>
</svg>
